<?xml version="1.0" encoding="utf-8"?>
<!-- Generator: Adobe Illustrator 17.0.0, SVG Export Plug-In . SVG Version: 6.00 Build 0)  -->
<!DOCTYPE svg PUBLIC "-//W3C//DTD SVG 1.1//EN" "http://www.w3.org/Graphics/SVG/1.1/DTD/svg11.dtd">
<svg version="1.1" id="Layer_1" xmlns="http://www.w3.org/2000/svg" xmlns:xlink="http://www.w3.org/1999/xlink" x="0px" y="0px"
	 width="280px" height="100px" viewBox="0 0 280 100" style="enable-background:new 0 0 280 100;" xml:space="preserve">
<style type="text/css">
	.st0{fill:#29ABE2;}
	.st1{fill:none;stroke:#FFFFFF;stroke-width:7;stroke-miterlimit:10;}
	.st2{fill:#FFFFFF;}
</style>
<g id="thumb.svg">
	<g>
		<path class="st0" d="M277,52c0,24.9-20.1,45-45,45H49C24.1,97,4,76.9,4,52v-3C4,24.1,24.1,4,49,4h183c24.9,0,45,20.1,45,45V52z"/>
		<path class="st1" d="M276.5,51.5c0,24.9-20.1,45-45,45h-183c-24.9,0-45-20.1-45-45v-3c0-24.9,20.1-45,45-45h183
			c24.9,0,45,20.1,45,45V51.5z"/>
	</g>
	<g>
		<path class="st2" d="M88,53.5c0.7-0.1,1.9-0.3,3.7-0.6c1.8-0.3,3.2-0.5,4.2-0.6v-6.7H88v-2.5h7.9v-5.7c-2,0.4-4.1,0.7-6.3,0.9
			c-0.2-0.9-0.4-1.8-0.7-2.8c5.6-0.5,10.6-1.2,15.2-2.1l0.9,2.7c-0.1,0-0.2,0.1-0.4,0.1c-2.5,0.4-4.4,0.7-5.8,0.9v6h9.2
			c-0.2-3.9-0.3-7.4-0.4-10.7h2.8c0,2.7,0.1,6.3,0.4,10.7h13.3v2.5H111c0.4,4,0.9,7.2,1.5,9.8c3.2-2.7,5.5-5.3,7-7.9l2.5,1.6
			c-2.3,3.2-5.2,6.2-8.6,9.1c1.2,2.8,2.4,4.6,3.7,5.4c1.7,1.2,2.7,1,3.1-0.4c0.4-1.4,0.7-3.3,1-5.8c1.1,0.4,2,0.7,2.8,1
			c-0.3,1.7-0.7,3.4-1.2,5.2c-0.6,2.4-1.9,3.6-3.9,3.7c-2.1,0-4-1.2-5.8-3.7c-0.8-0.8-1.5-1.9-2.1-3.4c-2.7,2-5.5,3.7-8.5,5.1
			c-0.6-1-1.2-1.8-1.8-2.4c3.5-1.6,6.6-3.4,9.4-5.5c-1.1-3.3-1.8-7.2-2.1-11.8h-9.4v6.1c2.7-0.5,5.2-0.9,7.4-1.3c0,1,0,1.9,0.1,2.7
			c-1.1,0.3-3.6,0.8-7.6,1.5v7.9c0.1,2.9-1.5,4.4-4.9,4.6c-1.5,0-2.8,0-3.9,0c-0.1-1.1-0.3-2.1-0.6-3c0.3,0,0.8,0,1.6,0
			c1.2,0.1,2.1,0.1,2.7,0.1c1.6,0.1,2.3-0.5,2.2-1.9v-7.1c-1.5,0.3-3.5,0.6-6,1c-0.6,0.2-1,0.3-1.2,0.3L88,53.5z M113.4,35.5
			l1.9-1.8c2.6,2,4.7,3.8,6.4,5.4l-2.1,2.1C118.6,40.2,116.5,38.3,113.4,35.5z"/>
		<path class="st2" d="M143.6,31.8l3,0.6c-0.1,0.1-0.2,0.2-0.3,0.3c-0.2,0.5-0.4,0.8-0.6,0.9c4.7,5.7,10.2,9.7,16.7,12.1
			c-0.1,0.2-0.4,0.7-0.9,1.5c-0.5,0.6-0.8,1.1-1,1.5c-6.8-3.2-12.2-7.5-16.2-13.1c-4.7,5.5-10.1,10-16.2,13.6
			c-0.6-0.8-1.2-1.7-1.9-2.7C133.4,42.6,139.2,37.7,143.6,31.8z M149.5,57.1c3.3,3.1,6.3,5.9,9.1,8.5l-2.4,2.1
			c-0.3-0.3-0.7-0.8-1.3-1.5c-0.6-0.6-1-1.1-1.3-1.5c-8,0.4-14.1,0.8-18.3,1.3c-1.1,0.2-2.1,0.4-3,0.7l-1.8-3c1.1-0.4,2.1-0.9,3-1.6
			c1.7-1.4,3.8-3.7,6.3-7h-12.1v-2.7h33.1v2.7h-17.4c-2.9,3.7-5.3,6.4-7.1,8c6.2-0.2,11.2-0.4,15.2-0.6c-1.2-1.2-2.4-2.4-3.7-3.7
			L149.5,57.1z M134.2,45H154v2.7h-19.8V45z"/>
		<path class="st2" d="M185.9,36.8c1.4-1.7,2.5-3.3,3.3-4.9l2.8,1.6c-1.7,2.2-2.9,3.6-3.6,4.2H200v2.5h-35.3v-2.5h11.8
			c-0.2-0.3-0.5-0.7-0.9-1.2c-1-1.4-1.7-2.4-2.2-3l2.2-1.5c1.7,1.7,2.9,3.2,3.6,4.5l-1.9,1.2h10.3L185.9,36.8z M169.8,67.5h-2.7
			V43.7h15.3v19.8c0.2,2.6-1,3.8-3.7,3.6c-1.2,0-2.5,0-4,0c-0.1-0.9-0.3-1.8-0.6-2.7c0.3,0,0.9,0,1.9,0c1,0.1,1.7,0.1,2.1,0.1
			c1.2,0.1,1.7-0.4,1.6-1.5v-4.3h-10V67.5z M169.8,46.1v4h10v-4H169.8z M169.8,52.3v4h10v-4H169.8z M186.9,44.3h2.7v16.2h-2.7V44.3z
			 M194.7,42.6h2.7v19.8c0.2,3-1.2,4.5-4.3,4.5c-1.7,0.1-3.2,0.1-4.6,0.1c-0.1-1.1-0.2-2.1-0.4-3c0.3,0,0.8,0,1.5,0
			c1.1,0.1,2,0.1,2.7,0.1c1.8,0.1,2.6-0.7,2.5-2.5V42.6z"/>
		<path class="st2" d="M202.6,53.8c3.6-3,6.9-7,10-12.2l2.5,1.5c-1.3,2.1-2.6,4-4,5.8v18.5h-2.8v-15c-1.4,1.5-2.8,3-4.3,4.5
			c-0.1-0.2-0.3-0.7-0.6-1.5C202.9,54.5,202.7,54,202.6,53.8z M203.6,42.2c3.6-2.8,6.5-6.1,8.8-10l2.5,1.5
			c-3.1,4.5-6.4,8.2-9.8,11.3c-0.1-0.3-0.4-0.9-1-1.9C203.9,42.6,203.7,42.3,203.6,42.2z M216.1,49.9h8.6v-8.5h-9.8v-2.7h22.5v2.7
			h-9.8v8.5h8.6v2.7h-8.6V63h10.7v2.4h-24.7V63h11.2V52.6h-8.6V49.9z M223.6,32.8l2.7-0.7c0.8,1.8,1.5,3.6,2.1,5.5l-2.8,0.9
			C224.6,35.8,224,33.9,223.6,32.8z"/>
	</g>
	<path class="st2" d="M75,47.2c-0.2-0.4-0.5-0.6-1-0.6h-3.3c-0.8,0-1.3-0.1-1.6-0.3c-0.2-0.2-0.8-0.7-1.9-2.3l-0.9-1.2
		c-1.1-1.5-1.7-2.3-2.1-2.8l-5.8-6.2l-1.4-6.4c-0.1-0.3-0.2-0.5-0.5-0.7c-0.2-0.1-0.5-0.2-0.8-0.1l-0.3,0.1c-3.6,0.8-5.4,3-5.4,6.4
		c0,1.2,0.6,2.9,1.7,5.1l0.5,0.9c0.8,1.6,1.3,3.2,1.6,4.9h-0.2c-3.2,0-5.8,0.6-7.7,1.6c-2,1.1-3.1,2.7-3.1,4.6
		c0,1.5,0.5,2.9,1.6,4.2c-0.4,0.7-0.6,1.4-0.6,2c0,0.9,0.3,1.7,0.8,2.3c0.4,0.5,1,0.9,1.8,1.2c0,0.2,0,0.4,0,0.6
		c0,2.1,1.2,3.4,3.4,3.7c0,0.1,0,0.1,0,0.2c0,1.7,0.9,3.8,5.2,3.8H56c0.2,0,0.3,0,0.5-0.1l0.9-0.4c1.4,0.4,2.6,0.5,3.6,0.5
		c0.4,0,0.9,0,1.7-0.1c0.1,0,0.2,0,0.4-0.1c2.5-1.2,4.9-3,7-5.4h4.1c0.4,0,0.8-0.3,1-0.7c1-2.4,1.4-4.9,1.4-7.3
		C76.6,52,76,49.5,75,47.2z M61.5,65.8l1.5-0.7c0.3-0.1,0.5-0.3,0.6-0.6c0.1-0.3,0.1-0.6-0.1-0.8c-0.5-1-1.1-1.8-1.9-2.5l0.7-0.3
		c0.3-0.1,0.5-0.4,0.6-0.7c0.1-0.3,0-0.6-0.1-0.9c-0.6-0.9-1.2-1.7-1.8-2.2c0.2-0.1,0.4-0.3,0.5-0.6c0.1-0.3,0.1-0.6-0.1-0.8
		c-0.6-1.1-1.4-2-2.3-2.6c0.1-0.1,0.3-0.3,0.3-0.5c0.1-0.3,0.1-0.6-0.1-0.8c-1.3-2.5-3.4-3.8-6.1-3.8c-0.5,0-1.2,0.1-1.8,0.2
		c-0.6,0.1-1.2,0.4-2,0.7l-1.2,0c-0.4,0-0.8,0.3-1,0.6c-0.2,0.4-0.1,0.8,0.2,1.1l0.4,0.4c0.2,0.2,0.5,0.3,0.8,0.3l1.1-0.1
		c0.1,0,0.2,0,0.4-0.1c0.8-0.3,1.4-0.6,2-0.7c0.6-0.2,1-0.2,1.3-0.2c1.1,0,2,0.4,2.8,1.3L51.1,54l-1.8,0c-1.2,0-2.1-0.4-2.9-1.1
		c-0.8-0.8-1.2-1.7-1.2-2.8c0-0.7,0.2-1.8,2.2-2.6c1.6-0.6,4.1-1,7.4-1h0.5c0,0,0,0,0,0c0.6,0,1.1-0.5,1.1-1.1c0-0.1,0-0.1,0-0.2
		l0-0.1c0-2.6-0.9-5.3-2.6-8.1c0,0,0,0,0,0l-0.4-0.7c-0.7-1.1-1-2.2-1-3.1c0-0.9,0.2-1.6,0.7-2.2c0.4-0.5,1-0.9,1.7-1.2l1.1,5.2
		c0,0.2,0.1,0.4,0.3,0.5l6.3,6.7c1.1,1.4,1.9,2.4,2.4,3.1c2.1,3,3,3.4,3.2,3.5c0.3,0.1,1.1,0.5,4.9,0.5c0.6,1.8,1,3.8,1,5.7
		c0,1.6-0.3,3.3-0.9,5.1h-3.8c-0.3,0-0.6,0.2-0.8,0.4c-1.7,2.2-3.7,3.9-6.3,5.4L61.5,65.8z M54.7,65.7c-0.9,0-1.6-0.2-2.1-0.4
		c-0.3-0.2-0.5-0.5-0.6-0.9h2.3c0.1,0,0.3,0,0.4-0.1l4.2-1.9c0.5,0.4,0.9,0.8,1.2,1.3c0,0,0,0,0,0l-4.6,2.1H54.7z M46.3,56.4
		c0-0.1,0-0.3,0.1-0.5c0.9,0.4,2,0.5,3.4,0.5h1.6c0.1,0,0.3,0,0.4-0.1l4.5-2c0.7,0.2,1.3,0.6,1.9,1.2L53,57.9h-3.3
		c-1.2,0-2.1-0.1-2.7-0.4C46.6,57.2,46.3,56.9,46.3,56.4z M53.3,60.4c0.1,0,0.3,0,0.4-0.1l4.6-2c0.5,0.3,0.9,0.6,1.3,1l-5.4,2.4
		h-2.3c-1.2,0-2-0.1-2.6-0.4c-0.4-0.2-0.7-0.5-0.7-0.9L53.3,60.4z"/>
</g>
<g>
</g>
<g>
</g>
<g>
</g>
<g>
</g>
<g>
</g>
<g>
</g>
<g>
</g>
<g>
</g>
<g>
</g>
<g>
</g>
<g>
</g>
<g>
</g>
<g>
</g>
<g>
</g>
<g>
</g>
</svg>
